<svg width="56" height="86" viewBox="0 0 56 86" fill="none" xmlns="http://www.w3.org/2000/svg">
<path d="M35.1912 17.131V17.5497C35.1912 17.8347 35.1912 17.637 35.1912 17.5497C35.1548 17.772 35.1044 17.9915 35.0402 18.2069C35.0067 18.329 34.9619 18.457 34.9172 18.5791C34.9172 18.5151 35.029 18.3581 34.9172 18.5791C34.8053 18.8001 34.671 19.0327 34.5312 19.2537C34.3131 19.591 34.6375 19.1374 34.4809 19.3177C34.4137 19.3991 34.341 19.4805 34.2683 19.5561C34.1956 19.6317 34.1508 19.6783 34.0893 19.7422C34.0278 19.8062 33.7537 20.033 33.9886 19.8469C33.822 19.9785 33.6463 20.0971 33.4628 20.2017L33.2447 20.3238C33.0937 20.3936 33.0881 20.3994 33.2447 20.3238C33.1874 20.3531 33.1274 20.3764 33.0657 20.3936C32.8639 20.4652 32.6585 20.5253 32.4504 20.5739C32.3833 20.5739 32.098 20.632 32.3721 20.5739C32.2602 20.5739 32.1484 20.5739 32.0365 20.6029C31.8148 20.6173 31.5925 20.6173 31.3709 20.6029C31.1248 20.6029 31.6897 20.6844 31.2926 20.6029L30.9122 20.5099C30.7891 20.475 30.6717 20.4285 30.5486 20.3878C30.4256 20.347 30.3081 20.2714 30.5486 20.3878C30.3563 20.2948 30.1695 20.1899 29.9893 20.0737C29.8998 20.0156 29.8159 19.9516 29.732 19.8876C29.5418 19.748 29.9501 20.1144 29.6704 19.8353C29.4914 19.6492 29.3125 19.4747 29.1502 19.2537C29.3069 19.4398 29.1502 19.2537 29.1502 19.2537L28.9433 18.928L28.8202 18.7012C28.8202 18.6663 28.6356 18.2767 28.7475 18.5675C28.668 18.3612 28.6026 18.1494 28.5517 17.9336C28.5517 17.8463 28.5182 17.7591 28.4958 17.6719C28.4734 17.5846 28.4958 17.4974 28.4958 17.6719C28.4901 17.6041 28.4901 17.536 28.4958 17.4683C28.4818 17.2612 28.4818 17.0532 28.4958 16.8461C28.4958 16.8053 28.5573 16.3634 28.4958 16.6832L28.5461 16.4215C28.594 16.2049 28.6538 15.9913 28.7251 15.7818C28.8482 15.398 28.5965 15.997 28.7867 15.6422C28.8482 15.5317 28.9041 15.4096 28.9657 15.2991L29.1391 15.0258C29.1726 14.9676 29.3516 14.7524 29.1838 14.956C29.3186 14.7905 29.4624 14.6332 29.6145 14.4849C29.6145 14.4849 29.911 14.2174 29.7543 14.3453C29.5977 14.4733 29.9277 14.2232 29.9166 14.229C30.1271 14.0843 30.3477 13.956 30.5766 13.8452C30.5207 13.8743 30.3361 13.9266 30.5766 13.8452C30.6996 13.8045 30.8171 13.758 30.9402 13.7231L31.1919 13.6591C31.1919 13.6591 31.5946 13.5835 31.3876 13.6126C31.1807 13.6417 31.6114 13.6126 31.6002 13.6126H31.9302H32.2658C32.5958 13.6126 32.126 13.5602 32.4113 13.6126C32.6965 13.6649 32.9091 13.7405 33.1552 13.8278C33.5356 13.9615 33.0154 13.7521 33.2279 13.8626L33.6195 14.0778L33.832 14.2174L34.0334 14.3686C33.9159 14.2756 33.9215 14.2814 34.0334 14.3686C34.1453 14.4558 34.3242 14.6768 34.4753 14.828C34.7438 15.113 34.3466 14.607 34.5648 14.9443C34.6375 15.049 34.7046 15.1595 34.7717 15.27C34.8388 15.3805 34.8892 15.5026 34.9507 15.6131C35.0906 15.8748 34.9116 15.4387 35.0122 15.7527C35.1129 16.0668 35.1577 16.2587 35.2192 16.5204C35.2192 16.5727 35.2584 16.8053 35.2192 16.5204C35.2192 16.7065 35.2192 16.8926 35.2528 17.0729C35.2528 17.4585 35.4001 17.8283 35.6623 18.1009C35.9246 18.3736 36.2803 18.5268 36.6511 18.5268C37.022 18.5268 37.3777 18.3736 37.6399 18.1009C37.9022 17.8283 38.0495 17.4585 38.0495 17.0729C38.0201 15.7496 37.6063 14.4665 36.8626 13.3923C36.1188 12.318 35.0799 11.5028 33.8824 11.0537C32.6965 10.6124 31.4095 10.5568 30.1925 10.8944C28.9755 11.232 27.8862 11.9468 27.0695 12.9438C26.4231 13.7338 25.9698 14.6744 25.748 15.6857C25.5261 16.6969 25.5423 17.7488 25.7952 18.7521C26.0481 19.7554 26.5302 20.6804 27.2006 21.4486C27.8709 22.2167 28.7097 22.8052 29.6456 23.1641C30.5816 23.5231 31.587 23.6418 32.5765 23.5102C33.5661 23.3787 34.5104 23.0007 35.3294 22.4084C36.1483 21.8162 36.8176 21.0271 37.2805 20.1084C37.7434 19.1896 37.9861 18.1682 37.988 17.131C37.988 16.7454 37.8407 16.3756 37.5784 16.103C37.3162 15.8303 36.9605 15.6771 36.5896 15.6771C36.2187 15.6771 35.8631 15.8303 35.6008 16.103C35.3386 16.3756 35.1912 16.7454 35.1912 17.131Z" fill="#4DDBC1"/>
<path d="M28.4564 15.8981L28.3949 3.27819V1.46954L26.9853 2.91181C27.7568 2.88835 28.5288 2.92334 29.2954 3.01649L29.8156 3.07465L30.1233 3.11536C29.8044 3.07465 29.9219 3.08046 30.1233 3.11536C30.5652 3.18514 31.007 3.26656 31.4433 3.3538C32.4732 3.57252 33.4894 3.85607 34.4862 4.20287C34.7547 4.29592 35.0456 4.39479 35.2861 4.49947L35.6385 4.65649L35.851 4.74954C36.1922 4.8833 35.6441 4.65068 35.907 4.74954C36.4663 4.99961 37.0257 5.27295 37.585 5.57536C38.1444 5.87777 38.7037 6.22671 39.2631 6.5989C39.5241 6.78113 39.7814 6.97498 40.035 7.18046C40.0965 7.22117 40.544 7.58174 40.2643 7.35493C40.4098 7.46543 40.5496 7.58756 40.6894 7.70387C41.2329 8.171 41.752 8.66797 42.2444 9.19266C42.5017 9.466 42.7479 9.74514 42.9884 10.0359L43.3352 10.4546L43.4862 10.6466L43.6372 10.8443C43.5533 10.7338 43.5421 10.7164 43.5981 10.7978C44.6007 12.1822 45.4454 13.683 46.1152 15.27C46.2438 15.5782 46.1767 15.4095 46.2997 15.7352C46.4228 16.0609 46.4955 16.2528 46.585 16.5087C46.764 17.0263 46.9262 17.5439 47.0717 18.0673C47.3974 19.2231 47.657 20.398 47.8492 21.5857C48.2646 24.3783 48.4052 27.2077 48.2687 30.03C48.196 31.9026 50.9927 31.8968 51.0654 30.03C51.3843 21.5973 49.7454 12.4727 43.5757 6.48259C39.8224 2.8711 34.9952 0.853086 30.0002 0.201739C29.0023 0.0484914 27.9938 -0.0176496 26.9853 0.0040081C26.6167 0.0114523 26.2651 0.167021 26.0044 0.438083C25.7437 0.709145 25.5941 1.07464 25.5869 1.45791L25.6484 14.072V15.8864C25.6484 17.7532 28.4452 17.759 28.4452 15.8864L28.4564 15.8981Z" fill="#4DDBC1"/>
<path d="M49.6227 28.5711C42.8042 28.4607 35.9857 28.2687 29.1728 28.2455C26.1301 28.1685 23.0918 28.5306 20.1448 29.3214C17.534 30.0814 15.0445 31.2355 12.7558 32.7467C10.1553 34.4639 7.85356 36.6269 5.94845 39.1439C5.69504 39.4207 5.55371 39.7882 5.55371 40.1704C5.55371 40.5525 5.69504 40.92 5.94845 41.1968C6.21057 41.4685 6.56559 41.621 6.93571 41.621C7.30583 41.621 7.66085 41.4685 7.92297 41.1968C11.0704 37.002 15.3728 33.9043 20.2567 32.3164C22.9734 31.5004 25.7916 31.1084 28.619 31.1533C31.908 31.1533 35.1914 31.2463 38.4804 31.2987L49.6227 31.4789C51.4182 31.508 51.4238 28.6002 49.6227 28.5711Z" fill="#4DDBC1"/>
<path d="M6.08797 39.0971C2.33073 44 0.19804 50.034 0.0078103 56.2997C-0.130371 62.2895 1.56808 68.1697 4.85739 73.0893C6.68654 75.8373 8.95712 78.2374 11.5696 80.1843C11.7283 80.2806 11.9036 80.3434 12.0856 80.3691C12.2676 80.3949 12.4527 80.3832 12.6304 80.3346C12.808 80.286 12.9747 80.2015 13.1209 80.0859C13.2672 79.9703 13.3901 79.8259 13.4826 79.6609C13.5752 79.496 13.6356 79.3137 13.6603 79.1244C13.6851 78.9352 13.6738 78.7428 13.6271 78.5581C13.5803 78.3734 13.4991 78.2001 13.3879 78.048C13.2767 77.896 13.1379 77.7682 12.9792 77.672C8.79908 74.5302 5.67747 70.0987 4.05782 65.0072C2.43817 59.9156 2.40283 54.4229 3.95684 49.3093C4.83634 46.3577 6.2278 43.5984 8.06248 41.1675C8.31626 40.8897 8.45776 40.5212 8.45776 40.1381C8.45776 39.755 8.31626 39.3865 8.06248 39.1087C7.79965 38.8385 7.44489 38.6869 7.07523 38.6869C6.70556 38.6869 6.3508 38.8385 6.08797 39.1087V39.0971Z" fill="#4DDBC1"/>
<path d="M11.5856 80.1838C16.0765 83.3217 21.2629 85.2172 26.6545 85.6912C31.8856 86.2867 37.1752 85.4403 41.992 83.237C46.564 81.1237 50.3677 77.548 52.849 73.0306C55.195 68.6354 56.2691 63.6289 55.9422 58.6137C55.601 53.1936 53.7831 47.6455 50.2312 43.5862C48.5075 41.6359 46.3967 40.0985 44.0449 39.0803C41.6931 38.062 39.1566 37.5874 36.611 37.6892C33.9435 37.8199 31.3419 38.5942 29.012 39.9508C26.682 41.3073 24.6876 43.209 23.1866 45.5053C21.7195 47.7771 20.8181 50.3921 20.5633 53.1155C20.3085 55.8389 20.7082 58.5855 21.7266 61.1086C22.7161 63.3887 24.2629 65.3596 26.2129 66.8248C28.163 68.29 30.4482 69.1985 32.841 69.4598C35.4173 69.7324 38.007 69.0983 40.1955 67.659C42.3841 66.2197 44.0448 64.0585 44.9118 61.5215C45.3127 60.2391 45.4778 58.8896 45.3984 57.5436C45.3899 57.1608 45.2398 56.7962 44.9794 56.5254C44.719 56.2546 44.3682 56.0986 44 56.0897C43.6301 56.0928 43.2761 56.2469 43.0145 56.5189C42.7529 56.7909 42.6046 57.159 42.6017 57.5436C42.8869 62.1961 39.4078 66.0053 35.056 66.552C31.1405 67.0463 27.13 64.8073 25.0436 61.4226C22.6775 57.5669 22.7447 52.4085 24.7695 48.4131C25.8367 46.3454 27.3596 44.5697 29.2136 43.2314C31.0676 41.8931 33.2 41.0302 35.4364 40.7133C37.5987 40.4285 39.7949 40.646 41.8667 41.3499C43.9385 42.0538 45.8344 43.2268 47.4177 44.7842C50.6955 47.9944 52.5134 52.7283 53.0448 57.3168C53.5724 61.6213 52.9493 65.9937 51.2437 69.9541C49.4269 74.0265 46.4306 77.4061 42.6744 79.6197C34.6868 84.3652 24.0591 83.9174 16.0045 79.5673C14.9641 79.0017 13.959 78.3685 12.9952 77.6714C12.6737 77.4816 12.2936 77.4301 11.9361 77.5279C11.5786 77.6257 11.2721 77.8651 11.0822 78.1949C10.9039 78.53 10.8567 78.9238 10.9505 79.2942C11.0442 79.6646 11.2717 79.9832 11.5856 80.1838Z" fill="#4DDBC1"/>
</svg>
