<svg width="25" height="18" viewBox="0 0 25 18" fill="none" xmlns="http://www.w3.org/2000/svg">
<path d="M7.6119 9.03355C10.1429 9.03355 12.0522 7.09134 12.0522 4.51678C12.0522 1.94221 10.1429 0 7.6119 0C5.08094 0 3.17162 1.94221 3.17162 4.51678C3.17162 7.09134 5.08094 9.03355 7.6119 9.03355ZM8.88054 10.257H6.34325C2.84558 10.257 0 13.1516 0 16.7095V18H15.2238V16.7095C15.2238 13.1516 12.3782 10.257 8.88054 10.257ZM23.2087 4.18124L17.7535 9.7201L16.1144 8.05277L14.3205 9.87755L17.7535 13.3671L25 6.0086L23.2087 4.18124Z" fill="#CBDCEC"/>
</svg>
