<svg width="23" height="23" viewBox="0 0 23 23" fill="none" xmlns="http://www.w3.org/2000/svg">
<path d="M17.25 7.66671H19.1667C19.4208 7.66671 19.6646 7.76767 19.8443 7.9474C20.024 8.12712 20.125 8.37087 20.125 8.62504V20.125C20.125 20.3792 20.024 20.623 19.8443 20.8027C19.6646 20.9824 19.4208 21.0834 19.1667 21.0834H3.83333C3.57917 21.0834 3.33541 20.9824 3.15569 20.8027C2.97597 20.623 2.875 20.3792 2.875 20.125V8.62504C2.875 8.37087 2.97597 8.12712 3.15569 7.9474C3.33541 7.76767 3.57917 7.66671 3.83333 7.66671H5.75V6.70837C5.75 5.18338 6.3558 3.72084 7.43414 2.64251C8.51247 1.56418 9.97501 0.958374 11.5 0.958374C13.025 0.958374 14.4875 1.56418 15.5659 2.64251C16.6442 3.72084 17.25 5.18338 17.25 6.70837V7.66671ZM15.3333 7.66671V6.70837C15.3333 5.69171 14.9295 4.71669 14.2106 3.9978C13.4917 3.27891 12.5167 2.87504 11.5 2.87504C10.4833 2.87504 9.50831 3.27891 8.78942 3.9978C8.07053 4.71669 7.66667 5.69171 7.66667 6.70837V7.66671H15.3333ZM10.5417 13.4167V15.3334H12.4583V13.4167H10.5417ZM6.70833 13.4167V15.3334H8.625V13.4167H6.70833ZM14.375 13.4167V15.3334H16.2917V13.4167H14.375Z" fill="#CBDCEC"/>
</svg>
